<svg xmlns="http://www.w3.org/2000/svg" xmlns:xlink="http://www.w3.org/1999/xlink" xmlns:serif="http://www.serif.com/" width="100%" height="100%" viewBox="0 0 683 683" version="1.1" xml:space="preserve" style="fill-rule:evenodd;clip-rule:evenodd;stroke-linejoin:round;stroke-miterlimit:2;"><g transform="matrix(1.333333,0,0,1.333333,0,0)"><g><path d="M429.276,191.035C429.276,162.879 400.961,143.536 374.732,153.773L242.707,205.305C227.356,211.297 217.251,226.089 217.251,242.567L217.251,318.856C217.251,335.312 227.33,350.089 242.651,356.096L374.678,407.858C400.915,418.145 429.278,398.799 429.278,370.618L429.276,191.035Z" style="fill:url(#_Linear1);fill-rule:nonzero;"/><g><path d="M82.752,141.269C82.737,113.118 111.034,93.76 137.266,103.974L305.289,169.402C320.655,175.385 330.774,190.186 330.774,206.676L330.774,304.843C330.774,321.308 320.686,336.091 305.353,342.092L137.451,407.808C111.225,418.073 82.886,398.743 82.872,370.581L82.752,141.269Z" style="fill:url(#_Linear2);fill-rule:nonzero;"/></g></g></g><defs><linearGradient id="_Linear1" x1="0" y1="0" x2="1" y2="0" gradientUnits="userSpaceOnUse" gradientTransform="matrix(110.347,254.193,-254.193,110.347,327.102,153.102)"><stop offset="0" style="stop-color:rgb(231,78,81);stop-opacity:1"/><stop offset="1" style="stop-color:rgb(223,7,11);stop-opacity:1"/></linearGradient><linearGradient id="_Linear2" x1="0" y1="0" x2="1" y2="0" gradientUnits="userSpaceOnUse" gradientTransform="matrix(98.5248,276.526,-276.526,98.5248,95.8972,113.692)"><stop offset="0" style="stop-color:rgb(254,157,4);stop-opacity:1"/><stop offset="1" style="stop-color:rgb(250,113,26);stop-opacity:1"/></linearGradient></defs></svg>